PathFileType	4	(X/Y/Z)	..\data\SUBJ01\static\static.trc
DataRate	CameraRate	NumFrames	NumMarkers	Units	OrigDataRate	OrigDataStartFrame	OrigNumFrames
100.000000	100.000000	4	33	mm	100.000000	51	82
Frame#	Time	LFHD			RFHD			LBHD			RBHD			C7			T10			CLAV			STRN			LSHO			LELB			LWRA			LWRB			LFIN			RSHO			RELB			RWRA			RWRB			RFIN			LASI			RASI			SACR			LTHI			LKNE			LTIB			LANK			LHEE			LTOE			RTHI			RKNE			RTIB			RANK			RHEE			RTOE			
		X1	Y1	Z1	X2	Y2	Z2	X3	Y3	Z3	X4	Y4	Z4	X5	Y5	Z5	X6	Y6	Z6	X7	Y7	Z7	X8	Y8	Z8	X9	Y9	Z9	X10	Y10	Z10	X11	Y11	Z11	X12	Y12	Z12	X13	Y13	Z13	X14	Y14	Z14	X15	Y15	Z15	X16	Y16	Z16	X17	Y17	Z17	X18	Y18	Z18	X19	Y19	Z19	X20	Y20	Z20	X21	Y21	Z21	X22	Y22	Z22	X23	Y23	Z23	X24	Y24	Z24	X25	Y25	Z25	X26	Y26	Z26	X27	Y27	Z27	X28	Y28	Z28	X29	Y29	Z29	X30	Y30	Z30	X31	Y31	Z31	X32	Y32	Z32	X33	Y33	Z33	

52	0.51	-131.0038757324219	1571.851318359375	-205.6571197509766	-159.4575958251953	1540.843872070313	-87.42585754394533	-270.8366699218751	1481.302734375	-245.9353942871094	-297.7444458007813	1456.08251953125	-118.4201202392578	-317.2056274414063	1368.909057617188	-173.787353515625	-369.7469787597657	1144.218627929688	-182.1788482666016	-164.5145874023438	1278.3896484375	-184.1763305664063	-96.75411224365237	1125.589965820313	-181.1373138427735	-241.2883911132813	1315.972290039063	-351.2185058593751	-160.0629272460938	1092.823608398438	-510.9375915527345	-49.66184234619142	882.3223266601565	-569.0560913085939	-49.73541641235353	916.4488525390627	-626.6163940429689	-19.94292640686036	813.623718261719	-621.5382690429689	-231.3548736572266	1308.203491210938	-7.123528957366945	-201.7039184570313	1092.9111328125	178.0205993652344	-156.4389343261719	849.1956787109377	242.0370178222657	-156.4599914550782	897.751892089844	306.0032348632813	-126.2320709228516	791.1348876953127	294.2334289550782	-154.4215240478516	885.4877929687502	-315.2242126464844	-158.4326934814453	888.802429199219	-33.71077346801759	-331.0402832031251	886.268981933594	-173.0193786621094	-247.8192596435547	619.8606567382814	-383.7894592285157	-236.4108123779297	438.808807373047	-301.9802246093751	-274.5651855468751	200.0417785644532	-331.8327331542969	-256.8042907714844	67.24236297607423	-270.2815246582032	-314.7676391601563	52.93114471435548	-228.9068603515626	-148.359848022461	49.17421722412111	-244.1453704833985	-220.5238800048829	599.8806152343751	12.17267227172852	-225.5404968261719	445.6947631835939	-52.2672576904297	-247.1841278076172	190.1212005615235	-27.96121788024903	-268.7285461425782	67.8784637451172	-85.5664520263672	-317.0984191894532	59.17659378051759	-142.8029937744141	-154.8950347900391	47.77172470092774	-95.69819641113283	
53	0.52	-131.0009155273438	1571.810791015625	-205.5903472900391	-159.5426483154297	1540.731201171875	-87.46138000488283	-270.9069824218751	1481.303344726563	-245.8860626220704	-297.8353881835938	1456.094970703125	-118.3898010253907	-317.3390197753907	1368.959716796875	-173.713134765625	-369.7478332519532	1144.222045898438	-182.1775360107422	-164.6310119628907	1278.39794921875	-184.1839141845703	-96.86823272705081	1125.595703125	-181.1749420166016	-241.3207702636719	1315.972412109375	-351.2041931152344	-160.1197052001953	1092.8984375	-510.9712829589845	-49.61388397216798	882.425231933594	-569.0767211914064	-49.68983840942384	916.5786743164065	-626.6124267578126	-19.82453727722168	813.7664794921877	-621.6201782226564	-231.3776550292969	1308.158081054688	-7.105667591094972	-201.7477722167969	1092.948486328125	178.0458984375	-156.4846649169922	849.4031982421877	242.2316894531251	-156.5283355712891	897.910095214844	306.0852661132813	-126.2890548706055	791.3096313476565	294.3668212890626	-154.5644226074219	885.4226074218752	-315.2377624511719	-158.4718170166016	888.809265136719	-33.73173141479493	-331.1204528808594	886.253845214844	-173.0460662841797	-248.0525360107422	619.8113403320314	-383.8023986816407	-236.4138488769532	438.8342590332032	-301.9716796875001	-274.5375366210938	200.0700988769532	-331.7339782714844	-256.8691711425782	67.23811340332033	-270.2705383300782	-314.7909545898438	52.89477157592775	-228.8921356201172	-148.353271484375	49.21085357666017	-244.1564331054688	-220.6240539550782	599.9868774414064	12.20511627197266	-225.5873107910157	445.6158447265626	-52.25014495849611	-247.2336730957032	190.1446533203125	-27.90977859497071	-268.7467041015626	67.59325408935548	-85.85364532470705	-317.0989990234376	59.17702102661134	-142.8019561767578	-154.8678131103516	47.84883117675782	-95.6752166748047	
54	0.53	-131.0154724121094	1571.860595703125	-205.6902313232422	-159.5835876464844	1540.753662109375	-87.46798706054689	-270.9177856445313	1481.244750976563	-245.9612274169922	-297.8338012695313	1456.074340820313	-118.3781204223633	-317.4114379882813	1368.881591796875	-173.7454833984375	-369.9045104980469	1144.294677734375	-182.1679077148438	-164.6555633544922	1278.35986328125	-184.1776885986328	-96.95046234130862	1125.580444335938	-181.1045379638672	-241.2969360351563	1316.35400390625	-351.2262878417969	-160.0720825195313	1092.915771484375	-511.1235961914064	-49.504940032959	882.5422363281252	-569.0307006835939	-49.5612144470215	916.6962890625002	-626.7564697265626	-19.79514694213868	813.8152465820315	-621.6612548828126	-231.3860015869141	1308.172119140625	-7.084259986877443	-201.8264923095704	1093.0126953125	178.1259460449219	-156.5670013427735	849.3853149414065	242.3026580810547	-156.562255859375	898.0061035156252	306.1847839355469	-126.468734741211	791.3181152343752	294.3786621093751	-154.5856628417969	885.455993652344	-315.2912902832032	-158.6984100341797	888.9458007812502	-33.49471664428712	-331.1519165039063	886.302429199219	-172.9928894042969	-248.0577392578126	619.8074340820314	-383.6845703125001	-236.4140319824219	438.8389587402345	-301.9819335937501	-274.5089416503907	200.0960998535157	-331.7251892089844	-256.7923889160157	67.26210784912111	-270.2311401367188	-314.7874145507813	52.89612579345705	-228.8789367675782	-148.3334503173828	49.22251892089845	-244.1600952148438	-220.6021118164063	600.0267944335939	12.2531328201294	-225.5960083007813	445.6129455566407	-52.24715042114259	-247.2562103271485	190.1798248291016	-27.91486167907716	-268.7978515625001	67.8112030029297	-85.56356048583986	-317.0978698730469	59.19736862182619	-142.8023376464844	-154.8659820556641	47.72716522216798	-95.74209594726564	
55	0.54	-131.0915985107422	1571.876953125	-205.7577056884766	-159.5848846435547	1540.749267578125	-87.43875885009767	-270.9165344238282	1481.245727539063	-245.9635009765626	-297.8856811523438	1456.088012695313	-118.4374160766602	-317.4742126464844	1368.89013671875	-173.7090911865235	-370.0219421386719	1144.281005859375	-182.1165008544922	-164.6506652832032	1278.357299804688	-184.1771087646485	-96.94930267333987	1125.60498046875	-181.1122131347657	-241.5598754882813	1316.031127929688	-351.2730102539063	-160.0515441894532	1093.048461914063	-511.0447387695314	-49.41401672363283	882.6016845703127	-568.9764404296876	-49.5565872192383	916.8125000000002	-626.7568969726564	-19.79503059387207	813.848571777344	-621.6544799804689	-231.4014892578126	1308.168701171875	-7.063755035400392	-201.816390991211	1093.024047851563	178.1427764892578	-156.7366790771485	849.5279541015627	242.3057708740235	-156.5876159667969	898.0036621093752	306.3268432617188	-126.5001754760742	791.4083251953127	294.5005493164063	-154.6673126220703	885.4885253906252	-315.2443237304688	-158.6965789794922	888.8978271484377	-33.70640182495118	-331.2013549804688	886.268493652344	-173.0071411132813	-248.1111907958985	619.7966918945314	-383.6210632324219	-236.4189147949219	438.8475646972657	-301.9805297851563	-274.4739990234376	200.0196838378907	-331.7681274414063	-256.8867492675782	67.30677032470705	-270.2560424804688	-314.7865295410157	52.89720153808595	-228.878646850586	-148.4068603515625	49.19486618041994	-244.2395935058594	-220.6676788330079	600.0291748046876	12.20506381988526	-225.5767669677735	445.6001281738282	-52.26977920532228	-247.2764434814454	190.1102294921875	-27.90225410461426	-268.8237609863282	67.8452606201172	-85.52208709716798	-317.1177368164063	59.21184158325197	-142.7766723632813	-154.8540649414063	47.70173645019532	-95.77322387695314	
